<?xml version="1.0" encoding="iso-8859-1"?>
<!-- Generator: Adobe Illustrator 17.1.0, SVG Export Plug-In . SVG Version: 6.00 Build 0)  -->
<!DOCTYPE svg PUBLIC "-//W3C//DTD SVG 1.1//EN" "http://www.w3.org/Graphics/SVG/1.1/DTD/svg11.dtd">
<svg version="1.1" id="Capa_1" xmlns="http://www.w3.org/2000/svg" xmlns:xlink="http://www.w3.org/1999/xlink" x="0px" y="0px"
	 viewBox="0 0 207.242 207.242" style="enable-background:new 0 0 207.242 207.242;" xml:space="preserve">
<path d="M168.329,45.904c12.676,0,22.952-10.276,22.952-22.952C191.281,10.276,181.005,0,168.329,0
	c-12.676,0-22.952,10.276-22.952,22.952c0,8.057,4.155,15.14,10.436,19.235l-14.614,39.157c-2.62-0.588-5.342-0.909-8.14-0.909
	c-9.105,0-17.437,3.293-23.884,8.745l-48.07-43.354c2.077-3.572,3.273-7.72,3.273-12.149c0-13.37-10.838-24.208-24.208-24.208
	c-13.37,0-24.208,10.838-24.208,24.208s10.838,24.208,24.208,24.208c5.323,0,10.241-1.722,14.237-4.634l48.065,43.351
	c-4.057,5.939-6.433,13.118-6.433,20.853c0,9.332,3.46,17.85,9.158,24.361l-32.185,24.7c-4.007-3.362-9.171-5.39-14.811-5.39
	c-12.735,0-23.058,10.323-23.058,23.058c0,12.735,10.324,23.058,23.058,23.058c12.735,0,23.058-10.324,23.058-23.058
	c0-3.481-0.776-6.779-2.156-9.737l33.806-25.943c5.8,3.772,12.716,5.971,20.151,5.971c20.445,0,37.02-16.574,37.02-37.02
	c0-14.11-7.896-26.374-19.509-32.62l14.612-39.151C166.211,45.825,167.261,45.904,168.329,45.904z"/>
<g>
</g>
<g>
</g>
<g>
</g>
<g>
</g>
<g>
</g>
<g>
</g>
<g>
</g>
<g>
</g>
<g>
</g>
<g>
</g>
<g>
</g>
<g>
</g>
<g>
</g>
<g>
</g>
<g>
</g>
</svg>
