<?xml version="1.0" encoding="iso-8859-1"?>
<!-- Generator: Adobe Illustrator 19.0.0, SVG Export Plug-In . SVG Version: 6.00 Build 0)  -->
<svg version="1.1" id="Capa_1" xmlns="http://www.w3.org/2000/svg" xmlns:xlink="http://www.w3.org/1999/xlink" x="0px" y="0px"
	 viewBox="0 0 512 512" style="enable-background:new 0 0 512 512;" xml:space="preserve">
<g>
	<g>
		<path d="M400.987,90.342c30.772-16.21,55.752-39.487,72.238-67.314c2.793-4.714,2.842-10.565,0.129-15.326
			C470.641,2.94,465.582,0,460.101,0H51.898c-5.48,0-10.539,2.94-13.252,7.701c-2.713,4.762-2.664,10.613,0.129,15.326
			c16.486,27.827,41.466,51.105,72.238,67.314c26.424,13.92,56.216,22.137,86.911,24.073V153.6h-72.087
			c-26.953,0-49.748,20.174-53.024,46.926L42.009,452.087c-1.859,15.176,2.888,30.446,13.021,41.896
			C65.163,505.433,79.744,512,95.033,512h321.942c15.289,0,29.87-6.567,40.003-18.016c10.133-11.45,14.88-26.72,13.021-41.896
			l-30.803-251.56c-3.276-26.753-26.071-46.926-53.024-46.926h-72.096v-39.186C344.77,112.478,374.563,104.261,400.987,90.342z
			 M381.001,332.799c0,68.924-56.073,124.998-124.997,124.998s-124.997-56.074-124.997-124.998
			c0-68.923,56.074-124.997,124.997-124.997S381.001,263.876,381.001,332.799z"/>
	</g>
</g>
<g>
	<g>
		<path d="M256.004,238.308c-52.103,0-94.491,42.389-94.491,94.491c0,52.103,42.389,94.492,94.491,94.492
			c52.102,0,94.491-42.389,94.491-94.492C350.495,280.697,308.106,238.308,256.004,238.308z M266.79,343.585l-36.724,36.724
			c-2.978,2.978-6.882,4.468-10.785,4.468s-7.807-1.49-10.785-4.468c-5.957-5.956-5.957-15.614,0-21.57l36.724-36.724
			c5.956-5.956,15.614-5.956,21.57,0C272.746,327.97,272.746,337.628,266.79,343.585z"/>
	</g>
</g>
<g>
</g>
<g>
</g>
<g>
</g>
<g>
</g>
<g>
</g>
<g>
</g>
<g>
</g>
<g>
</g>
<g>
</g>
<g>
</g>
<g>
</g>
<g>
</g>
<g>
</g>
<g>
</g>
<g>
</g>
</svg>
